<svg fill="#ff0000" height="228px" width="228px" version="1.1" id="Layer_1" xmlns="http://www.w3.org/2000/svg" xmlns:xlink="http://www.w3.org/1999/xlink" viewBox="0 0 511.708 511.708" xml:space="preserve" stroke="#ff0000"><g id="SVGRepo_bgCarrier" stroke-width="0"></g><g id="SVGRepo_tracerCarrier" stroke-linecap="round" stroke-linejoin="round"></g><g id="SVGRepo_iconCarrier"> <g> <g> <path d="M503.4,187.504h-34.1c-3.7,0-6.9,2.3-8.1,5.8l-23.7,71h-23.2l-23.1-38.5c-1.5-2.6-4.3-4.1-7.3-4.1h-34.1v-25.6 c0-4.7-3.8-8.5-8.5-8.5h-59.7v-34.1h25.6c4.7,0,8.5-3.8,8.5-8.5v-51.3c0-4.7-3.8-8.5-8.5-8.5H153.5c-4.7,0-8.5,3.8-8.5,8.5v51.2 c0,4.7,3.8,8.5,8.5,8.5h25.6v34.1h-68.3c-2.3,0-4.4,0.9-6,2.5c-1.6,1.6-2.5,3.8-2.5,6v25.6H42.6c-4.7,0-8.5,3.8-8.5,8.5v51.2H17 v-25.5c0-4.7-3.8-8.5-8.5-8.5c-4.7,0-8.5,3.8-8.5,8.5v68.3c0,4.7,3.8,8.5,8.5,8.5c4.7,0,8.5-3.8,8.5-8.5v-25.6h17.1v68.3 c0,4.7,3.8,8.5,8.5,8.5h63.7l31.6,47.4c1.6,2.4,4.3,3.8,7.1,3.8h238.9c3.2,0,6.2-1.8,7.6-4.7l23.2-46.5h23.6l23.2,46.5 c1.5,2.9,4.4,4.7,7.6,4.7h34.1c4.7,0,8.5-3.8,8.5-8.5v-221.9C511.9,191.304,508.1,187.504,503.4,187.504z M102.3,358.204H51.1 v-119.5h51.2V358.204z M264.4,187.504h-68.3v-34.1h68.3V187.504z M435.1,358.204H418v-76.8h17.1V358.204z"></path> </g> </g> </g></svg>